<svg xmlns="http://www.w3.org/2000/svg" xmlns:xlink="http://www.w3.org/1999/xlink" width="40.562" height="40.562" viewBox="0 0 40.562 40.562">
  <defs>
    <radialGradient id="radial-gradient" cx="0.5" cy="0.5" r="0.5" gradientTransform="translate(0)" gradientUnits="objectBoundingBox">
      <stop offset="0" stop-color="#fa45c1"/>
      <stop offset="0.205" stop-color="#cb389d"/>
      <stop offset="0.668" stop-color="#571843"/>
      <stop offset="1"/>
    </radialGradient>
    <linearGradient id="linear-gradient" y1="0.5" x2="1" y2="0.5" gradientUnits="objectBoundingBox">
      <stop offset="0" stop-color="#ee62ff"/>
      <stop offset="1" stop-color="#806aff"/>
    </linearGradient>
  </defs>
  <g id="Group_59" data-name="Group 59" transform="translate(597.66 -21.552)">
    <g id="Group_57" data-name="Group 57" transform="translate(-609.92 17.236)" opacity="0.5" style="mix-blend-mode: color-dodge;isolation: isolate">
      <g id="Group_56" data-name="Group 56" transform="translate(12.259 4.316)">
        <rect id="Rectangle_33" data-name="Rectangle 33" width="40.562" height="40.562" rx="6.903" fill="url(#radial-gradient)"/>
      </g>
    </g>
    <g id="Group_58" data-name="Group 58" transform="translate(-587.349 29.268)">
      <path id="Path_224" data-name="Path 224" d="M-570.236,29.92l-2.639-2.641-10,10-5.131-5.131-2.65,2.65a1.434,1.434,0,0,0,0,2.027l7.781,7.781,2.646-2.648h0l10-10A1.448,1.448,0,0,0-570.236,29.92Z" transform="translate(591.08 -27.279)" fill="url(#linear-gradient)"/>
      <path id="Path_225" data-name="Path 225" d="M-583.739,43.272l-2.6,2.6a1.437,1.437,0,0,0,0,2.033l2.6,2.6,2.6-2.6a1.44,1.44,0,0,0,0-2.038Z" transform="translate(591.936 -24.111)" fill="url(#linear-gradient)"/>
    </g>
  </g>
</svg>
