<svg xmlns="http://www.w3.org/2000/svg" width="318.356" height="266.521" viewBox="0 0 318.356 266.521">
  <g id="Group_130" data-name="Group 130" transform="translate(-760.508 -217.632)">
    <g id="Group_86" data-name="Group 86" transform="translate(877.626 284.844)">
      <path id="Path_281" data-name="Path 281" d="M813.272,200.013c-3.747,3.6-5.173,9.2-1.6,13.523a10.481,10.481,0,0,0,14.079,1.689c10.148-7.833-.429-22.281-11.379-19.29a1.819,1.819,0,0,0,.482,3.556c3.2.184,6.628.305,9.185,2.55a6.659,6.659,0,0,1,.556,9.259c-5.97,7.336-16.335-3.468-10.067-10.029a.889.889,0,0,0-1.257-1.257Z" transform="translate(-809.613 -195.533)" fill="#8aa9fc"/>
    </g>
    <g id="Group_87" data-name="Group 87" transform="translate(985.764 299.129)">
      <path id="Path_282" data-name="Path 282" d="M854.985,204.112c1.374,5.1,2.888,10.148,4.46,15.193a1.593,1.593,0,0,0,2.571.885c4.1-2.786,8.2-5.524,12.085-8.608a1.466,1.466,0,0,0-.153-2.3c-4.551-3.122-10.692-7.73-16.464-7.763-1.469-.007-2.495,2.058-1.006,2.917,2.33,1.343,5.121,1.822,7.608,2.857a41.592,41.592,0,0,1,8.25,4.405q.086-1.256.172-2.511c-4.343,2.671-8.431,5.669-12.56,8.655l2.438.489c-1.76-4.985-3.568-9.931-5.521-14.842a1,1,0,0,0-1.879.62Z" transform="translate(-854.952 -201.522)" fill="#e3707f"/>
    </g>
    <g id="Group_88" data-name="Group 88" transform="translate(1012.996 315.117)">
      <path id="Path_283" data-name="Path 283" d="M867.961,221.853a119.045,119.045,0,0,0,17.828-10.215,1.9,1.9,0,0,0-2.1-3.158,116.609,116.609,0,0,0-16.834,11.1c-1.052.813-.277,2.934,1.1,2.273Z" transform="translate(-866.37 -208.225)" fill="#edc483"/>
    </g>
    <g id="Group_89" data-name="Group 89" transform="translate(781.034 326.287)">
      <path id="Path_284" data-name="Path 284" d="M778.11,234a118.8,118.8,0,0,0-5.35-19.839,1.9,1.9,0,0,0-3.587,1.226,116.737,116.737,0,0,0,6.459,19.1c.518,1.224,2.767,1.016,2.478-.487Z" transform="translate(-769.114 -212.909)" fill="#e8947e"/>
    </g>
    <g id="Group_90" data-name="Group 90" transform="translate(802.326 287.216)">
      <path id="Path_285" data-name="Path 285" d="M784.933,197.934l-.344-.3a3.857,3.857,0,0,0-5.455,5.455l.3.343a3.886,3.886,0,0,0,5.5-5.5Z" transform="translate(-778.041 -196.527)" fill="#251a51"/>
    </g>
    <g id="Group_106" data-name="Group 106" transform="translate(771.923 217.632)">
      <g id="Group_95" data-name="Group 95" transform="translate(42.111 92.65)">
        <path id="Path_286" data-name="Path 286" d="M901.208,354s-64.073,14.9-89.807-10.833L820.61,281.7c2.8-17.671,1.13-51.67,14.663-63.731a23.435,23.435,0,0,1,5.138-3.5c9.495-4.584,26.381-7.057,42.6-7.122,19.7-.076,39.969,14.821,45.142,33.825L906.83,291.04Z" transform="translate(-743.544 -204.608)" fill="#e3707f"/>
        <g id="Group_91" data-name="Group 91" transform="translate(89.294 36.563)">
          <path id="Path_287" data-name="Path 287" d="M882.424,229.189s28.7,55.283,14.451,58.229c-46.883,9.683-74.1,17.628-74.1,17.628l-2.39,18.205c.7,2.752,94.852.372,106-12.276,7.873-8.932,18.341-29.575-3.926-74.249l-6.766-15.2Z" transform="translate(-820.389 -221.528)" fill="#f6aea6"/>
        </g>
        <path id="Path_288" data-name="Path 288" d="M880.38,221.944,808.895,249.62l-2.237-37.5L791.35,206.2s-22.19,60.194,5.562,71.4,59.028-9.5,59.028-9.5Z" transform="translate(-782.95 -206.198)" fill="#f6aea6"/>
        <path id="Path_289" data-name="Path 289" d="M871.038,208.946c-24.95,7.949-39.833,17.268-74.958,31.917l18.036,40.224,31.092-9.982Z" transform="translate(-764.764 -202.392)" fill="#e3707f"/>
        <path id="Path_290" data-name="Path 290" d="M845.26,228.953l18.132,42.13,40.895-7.467-27.551-47.448-32.619,12.784" transform="translate(-698.23 -192.389)" fill="#e3707f"/>
        <g id="Group_92" data-name="Group 92" transform="translate(125.142 63.529)">
          <path id="Path_291" data-name="Path 291" d="M835.91,234.591c8.71-.484,17.311-.107,26.016.007.758.012.713-1.064,0-1.15-8.577-1.026-17.432-.615-26.016.122-.646.055-.663,1.059,0,1.021Z" transform="translate(-835.419 -232.834)" fill="#1a3066"/>
        </g>
        <g id="Group_93" data-name="Group 93" transform="translate(149.141 16.422)">
          <path id="Path_292" data-name="Path 292" d="M860.986,213.085c-29.425,2.657-9.3,46.041-1.758,59.178a.655.655,0,0,0,1.13-.661c-7.5-13.271-27.555-53.647.725-57.8.4-.06.312-.754-.1-.716Z" transform="translate(-845.481 -213.083)" fill="#1a3066"/>
        </g>
        <g id="Group_94" data-name="Group 94" transform="translate(76.137 40.952)">
          <path id="Path_293" data-name="Path 293" d="M821.826,223.642A243.99,243.99,0,0,0,814.874,268c-.038.613,1,.77,1.09.145,2.106-14.792,4.224-29.544,6.6-44.3.074-.472-.613-.687-.735-.2Z" transform="translate(-814.872 -223.368)" fill="#1a3066"/>
        </g>
      </g>
      <g id="Group_104" data-name="Group 104" transform="translate(132.346)">
        <path id="Path_294" data-name="Path 294" d="M882.513,221.085l1.35-18.639c4.885-1.374,7.422-7.623,5.474-12.307s-7.484-7.315-12.5-6.6c3.17-2.159,2.924-7.313.324-10.129s-6.678-3.73-10.511-3.878-7.711.317-11.479-.384c-3.341-.62-6.614-2.149-9.984-1.724s-6.592,4.219-4.775,7.088c-4.863-.713-10.122-1.362-14.439.983s-6.487,9.013-2.776,12.233c-2.452,1.252-3.065,4.8-1.686,7.184s4.2,3.632,6.945,3.83a25.548,25.548,0,0,0,8.133-1.188" transform="translate(-820.783 -167.352)" fill="#6338a1"/>
        <path id="Path_295" data-name="Path 295" d="M875.594,198.037l-.983,12.915s10.983,1.481,7.852,11.5-10.64,5.634-10.64,5.634-1.88,25.666-28.17,17.528c-20.924-6.478-19.646-33.572-16.989-56.672A15.467,15.467,0,0,1,845,175.558l15.806,3.079A18.353,18.353,0,0,1,875.594,198.037Z" transform="translate(-814.656 -156.387)" fill="#f6aea6"/>
        <path id="Path_296" data-name="Path 296" d="M867.483,194.724,860.4,232.5a15.153,15.153,0,0,1-18.41,11.947h0a15.153,15.153,0,0,1-11.4-17.387l3.845-21.652Z" transform="translate(-807.528 -129.44)" fill="#f6aea6"/>
        <g id="Group_96" data-name="Group 96" transform="translate(27.449 42.709)">
          <path id="Path_297" data-name="Path 297" d="M835.719,208.258c.041-.014.119.532-.656.909-.8.358-2.094-.425-2.426-1.705a11.792,11.792,0,0,1-.3-4.257c.086-1.631.174-3.3.267-5.04.448-7.15,1.088-12.927,1.431-12.906s.255,5.831-.191,12.982c-.126,1.743-.248,3.406-.365,5.035a13.109,13.109,0,0,0,0,3.938c.189,1.049.956,1.565,1.457,1.486S835.631,208.194,835.719,208.258Z" transform="translate(-832.292 -185.259)" fill="#251a51"/>
        </g>
        <g id="Group_97" data-name="Group 97" transform="translate(22.339 86.566)">
          <path id="Path_298" data-name="Path 298" d="M830.155,203.666c.117-.155,1.352.7,3.523,1.665a22.662,22.662,0,0,0,17.921.379c2.208-.873,3.48-1.677,3.589-1.514.088.115-1.021,1.193-3.232,2.316a20.133,20.133,0,0,1-18.67-.394C831.126,204.9,830.062,203.778,830.155,203.666Z" transform="translate(-830.15 -203.647)" fill="#251a51"/>
        </g>
        <g id="Group_98" data-name="Group 98" transform="translate(27.461 67.57)">
          <path id="Path_299" data-name="Path 299" d="M832.319,199.122c.145-.126.725.432,1.829.923a5.991,5.991,0,0,0,7.916-2.545c.613-1.042.756-1.834.949-1.817.146,0,.329.875-.155,2.192a6.121,6.121,0,0,1-9.137,2.936C832.559,200.024,832.2,199.2,832.319,199.122Z" transform="translate(-832.297 -195.683)" fill="#251a51"/>
        </g>
        <g id="Group_99" data-name="Group 99" transform="translate(60.783 60.736)">
          <path id="Path_300" data-name="Path 300" d="M846.268,199.395c-.014-.186.639-.281,1.369-.727a1.725,1.725,0,0,0,.789-1.023c.119-.47-.014-.9-.379-1.023a.587.587,0,0,0-.656.093l-1.054-.549c.99-2.044,1.875-3.456,2.132-3.341s-.193,1.717-1.045,3.823l-1.054-.549a1.727,1.727,0,0,1,2.118-.639,1.794,1.794,0,0,1,1.088,1.171,2.161,2.161,0,0,1-.062,1.371,2.457,2.457,0,0,1-1.5,1.46C846.91,199.807,846.266,199.535,846.268,199.395Z" transform="translate(-846.268 -192.817)" fill="#251a51"/>
        </g>
        <g id="Group_100" data-name="Group 100" transform="translate(40.532 41.14)">
          <path id="Path_301" data-name="Path 301" d="M837.786,185.321c-.134-.308,1.238-1.03,2.972-.57s2.576,1.753,2.309,1.956c-.255.246-1.262-.415-2.624-.754C839.089,185.578,837.886,185.659,837.786,185.321Z" transform="translate(-837.777 -184.601)" fill="#251a51"/>
        </g>
        <g id="Group_101" data-name="Group 101" transform="translate(17.796 37.216)">
          <path id="Path_302" data-name="Path 302" d="M828.257,184c-.157-.3,1.209-1.193,3.117-1.021s3.1,1.283,2.891,1.546c-.191.3-1.436-.186-3-.308C829.7,184.063,828.393,184.325,828.257,184Z" transform="translate(-828.245 -182.956)" fill="#251a51"/>
        </g>
        <path id="Path_303" data-name="Path 303" d="M874.823,214.974c-7.337-7.155-9.493-19.076-11.487-29.126a25.7,25.7,0,0,1-23.979,3.122,38.543,38.543,0,0,1-8.543,7.463,3.823,3.823,0,0,1-3.017.837c-1.231-.372-1.779-1.784-2.073-3.036a21.567,21.567,0,0,1,.427-12.173,14.646,14.646,0,0,1,8.169-8.76c4.1-1.591,8.724-.9,12.984.205a72.185,72.185,0,0,1,18.327,7.573c5.615,3.291,11.009,7.642,13.392,13.7s2.371,17.826-3.372,20.886" transform="translate(-814.867 -160.409)" fill="#6338a1"/>
        <g id="Group_102" data-name="Group 102" transform="translate(42.028 48.411)">
          <path id="Path_304" data-name="Path 304" d="M838.9,191.614c-.344-.024-.556-.933-.479-2.025s.42-1.963.763-1.939.556.933.477,2.027S839.24,191.638,838.9,191.614Z" transform="translate(-838.405 -187.65)" fill="#251a51"/>
        </g>
        <g id="Group_103" data-name="Group 103" transform="translate(20.917 45.716)">
          <path id="Path_305" data-name="Path 305" d="M830.046,190.484c-.341-.024-.556-.93-.477-2.025s.42-1.963.761-1.939.556.933.477,2.027S830.39,190.51,830.046,190.484Z" transform="translate(-829.553 -186.52)" fill="#251a51"/>
        </g>
      </g>
      <path id="Path_306" data-name="Path 306" d="M786.147,227.165s3.177-19.5,6.969-19.288,11.382,0,11.382,0,.632-18.546,2.74-15.6,2.771,27.9-5.359,39.876Z" transform="translate(-736.411 -133.265)" fill="#f6aea6"/>
      <path id="Path_307" data-name="Path 307" d="M840.764,256.545s-34.016,5.953-33.35,10.365a31.981,31.981,0,0,0,3.053,8.863l30.3-.711Z" transform="translate(-706.969 -43.814)" fill="#f6aea6"/>
      <g id="Group_105" data-name="Group 105" transform="translate(0 161.184)">
        <path id="Path_308" data-name="Path 308" d="M936.01,306.779l-.259-4.709-70.062-4.286-23.5-62.852-76.9,4.228,26.235,67.966Z" transform="translate(-765.294 -234.933)" fill="#6338a1"/>
        <path id="Path_309" data-name="Path 309" d="M783.076,252.746a5.7,5.7,0,1,0,5.378-6.006A5.7,5.7,0,0,0,783.076,252.746Z" transform="translate(-740.677 -218.591)" fill="#fff" opacity="0.41"/>
        <path id="Path_310" data-name="Path 310" d="M782.122,254.2a7.983,7.983,0,1,0,7.534-8.41A7.982,7.982,0,0,0,782.122,254.2Z" transform="translate(-742.003 -219.916)" fill="#fff" opacity="0.41"/>
      </g>
    </g>
    <path id="Path_311" data-name="Path 311" d="M760.508,267.82l300.745-3.754,17.611,9.249S847.992,336.682,760.508,267.82Z" transform="translate(0 184.234)" fill="#ddd2f3"/>
    <path id="Path_312" data-name="Path 312" d="M859.241,173.281c-.909,1.767,2.068,47.425,2.068,47.425l22.484-1.87-2.621,12.057,10.983-12.39,22-2.542L912.817,171.7Z" transform="translate(136.513 56.307)" fill="#ddd2f3"/>
    <g id="Group_121" data-name="Group 121" transform="translate(825.302 322.205)">
      <path id="Path_327" data-name="Path 327" d="M791.267,231.794c.308-2.046.25-3.993,1.4-5.793,2.28-3.592,5.519-2.69,8.658-1.109,3.2,1.61,6.2,2.573,9.679,1.068,5.426-2.347,7.971-10.53,2.8-14.38-1.679-1.247-3.33.811-3.105,2.385.315,2.2,1.407,4.625-.479,6.516-2.521,2.531-5.479.405-7.995-.73a10.445,10.445,0,0,0-8.412-.36c-4.83,1.951-8.329,8.5-4.5,12.92a1.179,1.179,0,0,0,1.961-.518Z" transform="translate(-787.675 -211.197)" fill="#6e3281"/>
    </g>
    <g id="Group_122" data-name="Group 122" transform="translate(898.815 336.322)">
      <path id="Path_328" data-name="Path 328" d="M819.871,227.553a119.058,119.058,0,0,0,19.369-6.85,1.9,1.9,0,0,0-1.493-3.482,116.523,116.523,0,0,0-18.553,7.9c-1.181.611-.8,2.836.677,2.435Z" transform="translate(-818.497 -217.116)" fill="#edc483"/>
    </g>
    <g id="Group_123" data-name="Group 123" transform="translate(867.808 350.954)">
      <path id="Path_329" data-name="Path 329" d="M805.529,225.841c1.374,5.1,2.888,10.148,4.46,15.193a1.591,1.591,0,0,0,2.569.885c4.1-2.783,8.2-5.524,12.088-8.608a1.466,1.466,0,0,0-.153-2.3c-4.551-3.122-10.695-7.73-16.464-7.763-1.469-.007-2.495,2.058-1.006,2.917,2.33,1.343,5.121,1.822,7.608,2.857a41.583,41.583,0,0,1,8.25,4.405q.086-1.256.169-2.511c-4.341,2.671-8.429,5.669-12.557,8.655l2.438.489c-1.76-4.985-3.568-9.931-5.521-14.842a1,1,0,0,0-1.879.62Z" transform="translate(-805.496 -223.251)" fill="#ede6f5"/>
    </g>
    <g id="Group_124" data-name="Group 124" transform="translate(875.821 400.88)">
      <path id="Path_330" data-name="Path 330" d="M809.841,247.919a121.356,121.356,0,0,0,20.545.036,1.858,1.858,0,0,0-.234-3.709,118.933,118.933,0,0,0-20.128,1.2c-1.317.179-1.71,2.359-.184,2.473Z" transform="translate(-808.856 -244.184)" fill="#6e3281"/>
    </g>
    <path id="Path_331" data-name="Path 331" d="M864.3,189.05l4.727,16.433,6.614-1.29L875,200.887l1.877-1.128,3.544,3.5,11.208-2.182,1.452-4.288-3.191-.713,4.119-1.374-.895-4.594-3.563.312,4.889-1.333-1.109-5.7-11.391,2.218s.737-7.961-2.628-10.547l-2.571.5a14.053,14.053,0,0,1,.787,4.04c-.081,1.543-2.318,8.653-2.318,8.653l-3.5,1.634-.833-2.316Z" transform="translate(143.757 60.964)" fill="#fff"/>
    <g id="Group_129" data-name="Group 129" transform="translate(776.318 219.25)">
      <path id="Path_332" data-name="Path 332" d="M767.137,168.031l3.813,45.518h83.825l4.641,16.016L864.309,212l15.973-.927L872.917,170.3Z" transform="translate(-767.137 -168.031)" fill="#ddd2f3"/>
      <g id="Group_128" data-name="Group 128" transform="translate(10.331 14.484)">
        <g id="Group_125" data-name="Group 125">
          <path id="Path_333" data-name="Path 333" d="M772.142,176.461c28.885-1.209,57.647-1.157,86.459,1.486,1.035.1,1.04-1.541,0-1.619-28.761-2.185-57.647-3.048-86.459-1.264-.892.055-.9,1.436,0,1.4Z" transform="translate(-771.469 -174.103)" fill="#fff"/>
        </g>
        <g id="Group_126" data-name="Group 126" transform="translate(1.682 8.985)">
          <path id="Path_334" data-name="Path 334" d="M772.847,180.228c28.888-1.209,57.649-1.157,86.461,1.486,1.035.1,1.04-1.541,0-1.619-28.764-2.185-57.647-3.048-86.461-1.264-.89.055-.9,1.436,0,1.4Z" transform="translate(-772.174 -177.87)" fill="#fff"/>
        </g>
        <g id="Group_127" data-name="Group 127" transform="translate(1.839 17.442)">
          <path id="Path_335" data-name="Path 335" d="M772.915,182.834c19.391.685,38.559-.754,57.936.98,1.033.093,1.04-1.548,0-1.619-19.352-1.324-38.564-.5-57.936-.758a.7.7,0,0,0,0,1.4Z" transform="translate(-772.24 -181.417)" fill="#fff"/>
        </g>
      </g>
    </g>
  </g>
</svg>
