<svg xmlns="http://www.w3.org/2000/svg" width="77.429" height="35.504" viewBox="0 0 77.429 35.504">
  <g id="Group_55" data-name="Group 55" transform="translate(-300.682 -211.306)">
    <path id="Path_1" data-name="Path 1" d="M322.35,232.106q-.112-.034-.237-.07a8.546,8.546,0,0,0-1.936-.354c-.126-.014-.246-.019-.363-.023a7.485,7.485,0,0,0-.791,0c-5.2.181-7.809,3.9-8.675,8.526-.037.2-.544,2.034-.777,2.764-.731,2.28-1.894,4.277-4.6,3.407l-3.486-1.117-.553,1.722c-.689,2.15.042,3.709,2.471,4.621.093.037.182.07.28.1l.461.2c4.174,1.34,6.771-1.15,8.358-2.825.19-.172.209-.214.423-.433a9.16,9.16,0,0,0,3.314,1.922,10.036,10.036,0,0,0,3.518.507h.009a8.267,8.267,0,0,0,.921-.093c.084-.009.163-.023.237-.037a9.132,9.132,0,0,0,6.934-6.478,11.028,11.028,0,0,0,.428-3.351C328.284,237.1,326.152,233.372,322.35,232.106Zm.4,10.262s0,0,0,.009c-.177,2.262-1.256,3.863-3.309,3.863a3.521,3.521,0,0,1-.447-.023s-.018,0-.018,0c-2.146-.214-3.146-1.945-3.23-4.714-.009-.135-.009-.27-.009-.41,0-2.667,1.131-4.566,3.342-4.566.107,0,.219,0,.331.014,2.3.158,3.374,2.029,3.374,5.138C322.778,241.917,322.769,242.145,322.75,242.368Z" transform="translate(0 -12.668)" fill="#fff"/>
    <path id="Path_2" data-name="Path 2" d="M391.142,232.852h1.129v5.556h-1.536c-5.285-.181-7.9-3.478-7.9-7.86V211.306h2.891a3.348,3.348,0,0,1,3.343,3.117V231.09A2.068,2.068,0,0,0,391.142,232.852Z" transform="translate(-51.155)" fill="#fff"/>
    <path id="Path_3" data-name="Path 3" d="M417.235,231.285v3.885c0,4.337-2.529,7.679-7.814,7.86h-4.563v-5.556h4.111c1.536-.135,2.168-.994,2.168-2.575v-7.634h2.214C415.925,227.266,417.235,228.62,417.235,231.285Zm-8.175-6.369a3.094,3.094,0,0,1,0-6.188,3.094,3.094,0,0,1,0,6.188Z" transform="translate(-64.872 -4.622)" fill="#fff"/>
    <path id="Path_4" data-name="Path 4" d="M446.408,257.122v1.039a6.382,6.382,0,0,1-6.55,6.414c-2.439,0-4.111-1.219-4.111-3.207v-2.439c1.129.135,2.213.271,2.3.271,2.258,0,2.484-1.265,2.484-3.749V241.357h2.394c2.846,0,3.7,1.129,3.7,3.975v6.234h3.885v5.556Z" transform="translate(-84.108 -18.713)" fill="#fff"/>
    <path id="Path_5" data-name="Path 5" d="M483.317,245.256v3.93c0,4.337-2.53,7.679-7.815,7.86H470.94V251.49h4.11c1.536-.135,2.168-.994,2.168-2.575v-7.679h2.213C482.007,241.236,483.317,242.591,483.317,245.256Zm-10.661,20.192a3.072,3.072,0,0,1,0-6.143,3.072,3.072,0,1,1,0,6.143Z" transform="translate(-105.207 -18.638)" fill="#fff"/>
  </g>
</svg>
